#!OML:ASF F:\VICON\USERDATA\INSTALL\rory3\rory3.ASF
:FULLY-SPECIFIED
:DEGREES
546
root -6.02003 17.4106 11.03 3.61384 86.3639 3.19497
lowerback 13.0539 3.35193 -4.16011
upperback 0.744605 3.93669 0.883797
thorax -6.87832 2.08183 2.53161
lowerneck -21.4029 -2.56034 -8.85065
upperneck 34.0265 -0.830513 3.75236
head 15.7185 -0.681069 3.06808
rclavicle -2.80038e-014 8.34896e-015
rhumerus -42.8148 24.242 -99.8997
rradius 94.6294
rwrist -14.6409
rhand -18.5476 2.35445
rfingers 7.12502
rthumb 7.74179 -27.4838
lclavicle -2.80038e-014 8.34896e-015
lhumerus -39.5244 -38.0975 101.925
lradius 88.6817
lwrist 16.9202
lhand -14.185 37.3662
lfingers 7.12502
lthumb 11.9507 67.0051
rfemur -29.8054 -0.127085 16.0236
rtibia 25.8389
rfoot -10.3736 7.12487
rtoes -25.3426
lfemur 5.99973 -8.91937 -24.8727
ltibia 24.5717
lfoot -18.3216 -9.46714
ltoes 4.5387
547
root -5.92989 17.4121 11.0381 4.57478 86.901 4.18759
lowerback 13.1509 3.30486 -4.04644
upperback 0.766202 3.88925 0.898644
thorax -6.8989 2.05568 2.48881
lowerneck -21.3368 -2.46039 -8.63448
upperneck 33.9613 -0.71872 3.61168
head 15.6583 -0.623242 2.98873
rclavicle 1.43622e-014 -5.1684e-015
rhumerus -42.8695 24.0881 -99.9789
rradius 94.5573
rwrist -14.4136
rhand -18.9097 2.58971
rfingers 7.12502
rthumb 7.39235 -27.2611
lclavicle 1.43622e-014 -5.1684e-015
lhumerus -39.546 -38.0322 101.974
lradius 88.5915
lwrist 16.7295
lhand -13.6678 37.1497
lfingers 7.12502
lthumb 12.4494 66.759
rfemur -29.4804 -0.30203 16.1161
rtibia 26.0669
rfoot -10.3805 7.82817
rtoes -25.9272
lfemur 6.09917 -9.01363 -24.7884
ltibia 24.929
lfoot -18.1291 -10.135
ltoes 3.87023
548
root -5.83729 17.4169 11.043 6.26507 87.4142 5.8859
lowerback 13.1789 3.26614 -3.92724
upperback 0.78584 3.8569 0.919161
thorax -6.8843 2.03638 2.44928
lowerneck -21.2665 -2.36386 -8.50745
upperneck 33.9505 -0.605916 3.56247
head 15.625 -0.563241 2.96694
rclavicle -7.97623e-015 -5.96354e-015
rhumerus -43.4016 24.9703 -99.9659
rradius 94.9879
rwrist -14.6728
rhand -19.1519 2.65879
rfingers 7.12502
rthumb 7.1585 -27.2001
lclavicle -7.97623e-015 -5.96354e-015
lhumerus -39.6901 -38.0627 102.093
lradius 88.5277
lwrist 16.6325
lhand -13.0018 36.5773
lfingers 7.12502
lthumb 13.0915 66.1464
rfemur -29.1297 -0.0436563 16.0153
rtibia 26.262
rfoot -10.3247 8.46541
rtoes -26.101
lfemur 6.2352 -9.62496 -24.8488
ltibia 25.2364
lfoot -17.4211 -10.8001
ltoes 6.10172
549
root -5.73829 17.426 11.0575 5.70937 87.9873 5.4061
lowerback 13.1689 3.2237 -3.86247
upperback 0.859403 3.82371 1.06489
thorax -6.80349 2.01951 2.57652
lowerneck -21.312 -2.32908 -8.58741
upperneck 34.0341 -0.500945 3.55227
head 15.6687 -0.529859 3.0008
rclavicle 2.51214e-014 -3.18055e-015
rhumerus -43.3321 24.3175 -100.021
rradius 94.7733
rwrist -13.4804
rhand -18.8191 2.82826
rfingers 7.12502
rthumb 7.4798 -27.0195
lclavicle 2.51214e-014 -3.18055e-015
lhumerus -39.8477 -38.0952 102.313
lradius 88.5147
lwrist 16.6015
lhand -12.7061 36.5307
lfingers 7.12502
lthumb 13.3764 66.0813
rfemur -28.6386 0.737706 15.8819
rtibia 26.4045
rfoot -10.0786 8.99106
rtoes -25.76
lfemur 6.50396 -10.1725 -24.7096
ltibia 25.4847
lfoot -16.5395 -11.7019
ltoes 9.40131
550
root -5.6312 17.4401 11.0927 1.05661 88.6261 0.857359
lowerback 13.1347 3.1638 -3.91198
upperback 0.938546 3.75519 1.26087
thorax -6.71134 1.98961 2.82947
lowerneck -21.3404 -2.31116 -8.60358
upperneck 34.0762 -0.425715 3.47189
head 15.6905 -0.510922 2.98564
rclavicle -3.73218e-014 2.78299e-015
rhumerus -44.0865 25.5588 -100.183
rradius 95.1769
rwrist -13.257
rhand -20.2733 2.64731
rfingers 7.12502
rthumb 6.07597 -27.2456
lclavicle -3.73218e-014 2.78299e-015
lhumerus -39.9988 -38.0255 102.498
lradius 88.5257
lwrist 16.5411
lhand -13.2655 37.142
lfingers 7.12502
lthumb 12.8372 66.7272
rfemur -28.0634 1.69517 15.853
rtibia 26.4912
rfoot -9.37753 9.77919
rtoes -23.3815
lfemur 6.76615 -10.0809 -24.24
ltibia 25.7051
lfoot -16.0361 -12.6866
ltoes 9.32335
551
root -5.52649 17.4585 11.1163 -13.6064 89.1945 -13.7459
lowerback 13.2065 3.09071 -3.73777
upperback 0.945904 3.69305 1.40794
thorax -6.73729 1.95742 2.89662
lowerneck -21.2213 -2.20203 -8.28986
upperneck 33.9821 -0.233927 3.0425
head 15.6007 -0.447912 2.77882
rclavicle -1.67973e-014 3.97569e-015
rhumerus -44.4449 25.8907 -100.316
rradius 95.2983
rwrist -13.0469
rhand -20.472 2.77289
rfingers 7.12502
rthumb 5.8841 -27.1254
lclavicle -1.67973e-014 3.97569e-015
lhumerus -40.1648 -37.9214 102.659
lradius 88.4748
lwrist 16.2593
lhand -13.6412 37.4567
lfingers 7.12502
lthumb 12.475 67.0643
rfemur -27.7192 2.04131 16.0443
rtibia 26.567
rfoot -8.15369 11.295
rtoes -19.4651
lfemur 6.98826 -10.0786 -23.8109
ltibia 25.8841
lfoot -15.637 -13.3258
ltoes 7.99087
552
root -5.42266 17.4784 11.1246 -60.3098 89.5463 -60.4418
lowerback 13.2611 3.0065 -3.3436
upperback 0.92205 3.64392 1.4832
thorax -6.76922 1.9239 2.76107
lowerneck -21.0684 -2.04181 -7.96891
upperneck 33.9182 -0.00273803 2.70836
head 15.5157 -0.352475 2.62137
rclavicle 4.83544e-014 -2.78299e-015
rhumerus -44.4049 25.4285 -100.332
rradius 95.1208
rwrist -12.7494
rhand -19.7119 3.17443
rfingers 7.12502
rthumb 6.61799 -26.7022
lclavicle 4.83544e-014 -2.78299e-015
lhumerus -40.3529 -37.8869 102.794
lradius 88.3357
lwrist 15.7751
lhand -13.4401 37.2765
lfingers 7.12502
lthumb 12.669 66.8723
rfemur -27.437 2.66408 15.9895
rtibia 26.6663
rfoot -6.27561 12.3872
rtoes -10.6974
lfemur 7.17092 -10.5942 -23.5932
ltibia 26.0926
lfoot -14.8343 -13.7024
ltoes 8.59042
553
root -5.30907 17.4944 11.1384 -79.6977 89.3546 -79.7983
lowerback 13.1803 3.08006 -3.11687
upperback 0.919898 3.78912 1.63592
thorax -6.73366 1.99065 2.77
lowerneck -21.0288 -1.95831 -8.04389
upperneck 34.0742 0.153078 2.7588
head 15.5705 -0.286731 2.6919
rclavicle 4.99943e-014 1.23246e-014
rhumerus -44.314 24.8568 -100.337
rradius 94.8953
rwrist -12.4067
rhand -18.8383 3.55051
rfingers 7.12502
rthumb 7.46126 -26.2979
lclavicle 4.99943e-014 1.23246e-014
lhumerus -40.6134 -37.7599 103.099
lradius 88.1737
lwrist 15.4761
lhand -13.6531 37.3266
lfingers 7.12502
lthumb 12.4636 66.935
rfemur -27.1641 2.92865 16.3352
rtibia 26.7519
rfoot -4.81963 13.1882
rtoes -5.2655
lfemur 7.39479 -10.5788 -23.2358
ltibia 26.4444
lfoot -13.8671 -14.3712
ltoes 10.434
554
root -5.20071 17.5123 11.1449 -108.661 89.0674 -108.675
lowerback 13.2415 3.0475 -2.75901
upperback 0.919383 3.81333 1.82706
thorax -6.76018 1.99624 2.76339
lowerneck -20.8739 -1.91389 -7.96965
upperneck 34.0297 0.332841 2.37178
head 15.5051 -0.252777 2.54545
rclavicle -6.16232e-015 -3.97569e-015
rhumerus -44.3976 24.6458 -100.288
rradius 94.8273
rwrist -12.3424
rhand -18.2746 3.58699
rfingers 7.12502
rthumb 8.00527 -26.2414
lclavicle -6.16232e-015 -3.97569e-015
lhumerus -40.9204 -37.6158 103.514
lradius 88.0899
lwrist 15.3999
lhand -13.9507 37.565
lfingers 7.12502
lthumb 12.1766 67.1906
rfemur -26.7742 2.60603 16.7198
rtibia 26.8398
rfoot -4.0649 13.1188
rtoes -3.81571
lfemur 7.53257 -10.7391 -22.9247
ltibia 26.9565
lfoot -13.016 -14.7793
ltoes 10.8227
555
root -5.09775 17.5245 11.1447 -126.213 88.6153 -126.137
lowerback 13.3531 2.97447 -2.27572
upperback 0.953924 3.79852 1.95106
thorax -6.76141 1.9775 2.62115
lowerneck -20.7114 -1.833 -7.64267
upperneck 33.8487 0.491428 1.87974
head 15.374 -0.209084 2.30281
rclavicle -3.21534e-014 -1.27222e-014
rhumerus -44.629 25.0652 -100.177
rradius 94.9055
rwrist -12.8555
rhand -18.1349 3.72421
rfingers 7.12502
rthumb 8.14018 -26.099
lclavicle -3.21534e-014 -1.27222e-014
lhumerus -41.0459 -37.5801 103.681
lradius 88.0186
lwrist 15.4639
lhand -14.0408 37.7173
lfingers 7.12502
lthumb 12.0898 67.348
rfemur -26.323 2.51219 16.9362
rtibia 26.9496
rfoot -4 11.7709
rtoes -5.14065
lfemur 7.52513 -10.8509 -22.6729
ltibia 27.6009
lfoot -12.4829 -14.9053
ltoes 8.58606
556
root -4.99263 17.5383 11.1458 -135.231 88.1129 -135.119
lowerback 13.4301 2.84373 -1.85353
upperback 0.953286 3.69689 2.04801
thorax -6.7778 1.91793 2.50258
lowerneck -20.6362 -1.68924 -7.39653
upperneck 33.8234 0.689276 1.66628
head 15.3331 -0.121136 2.20624
rclavicle 1.78906e-014 0
rhumerus -45.037 25.9142 -100.2
rradius 94.9951
rwrist -13.5532
rhand -18.2847 4.10578
rfingers 7.12502
rthumb 7.99558 -25.723
lclavicle 1.78906e-014 0
lhumerus -41.1326 -37.384 103.695
lradius 87.8583
lwrist 15.4284
lhand -14.196 37.7806
lfingers 7.12502
lthumb 11.9401 67.4201
rfemur -25.8513 2.77721 17.0388
rtibia 27.0235
rfoot -4.40984 9.80094
rtoes -8.19546
lfemur 7.36901 -11.0389 -22.4445
ltibia 28.431
lfoot -11.9622 -15.0539
ltoes 6.14793
557
root -4.8849 17.5586 11.1488 -143.235 87.5957 -143.051
lowerback 13.5706 2.70392 -1.58572
upperback 0.920154 3.56201 2.16707
thorax -6.87462 1.84773 2.49798
lowerneck -20.5754 -1.59916 -7.401
upperneck 33.901 0.862742 1.59831
head 15.3468 -0.0553899 2.21338
rclavicle -1.54058e-015 7.95139e-016
rhumerus -45.3601 26.3291 -100.267
rradius 95.0797
rwrist -13.7815
rhand -18.4882 4.04844
rfingers 7.12502
rthumb 7.79913 -25.7877
lclavicle -1.54058e-015 7.95139e-016
lhumerus -41.3956 -37.0317 103.931
lradius 87.704
lwrist 15.2504
lhand -13.9144 37.4767
lfingers 7.12502
lthumb 12.2116 67.1002
rfemur -25.3359 2.77402 17.0667
rtibia 27.1131
rfoot -4.91646 8.42573
rtoes -10.7934
lfemur 7.27626 -11.6284 -22.3489
ltibia 29.319
lfoot -10.7223 -15.4537
ltoes 7.78
558
root -4.78136 17.5782 11.1499 -151.299 86.9907 -151.011
lowerback 13.7641 2.54555 -1.31974
upperback 0.925277 3.40059 2.24451
thorax -6.95671 1.76365 2.45486
lowerneck -20.6007 -1.57235 -7.46928
upperneck 33.9972 0.979218 1.5179
head 15.394 -0.0255021 2.21655
rclavicle 2.83268e-015 -5.56597e-015
rhumerus -45.4514 26.3765 -100.249
rradius 95.1801
rwrist -13.7297
rhand -18.4153 3.709
rfingers 7.12502
rthumb 7.86948 -26.1245
lclavicle 2.83268e-015 -5.56597e-015
lhumerus -41.6131 -36.6988 104.186
lradius 87.621
lwrist 15.0885
lhand -13.6975 37.1805
lfingers 7.12502
lthumb 12.4208 66.7914
rfemur -24.8252 2.46189 17.0011
rtibia 27.252
rfoot -5.42008 7.72032
rtoes -12.5585
lfemur 7.15605 -12.3916 -22.3645
ltibia 30.2253
lfoot -8.81836 -15.9118
ltoes 12.4365
559
root -4.67025 17.5908 11.1516 -155.774 86.6445 -155.438
lowerback 13.7534 2.44958 -1.17925
upperback 0.959693 3.29823 2.26995
thorax -6.90155 1.71008 2.42398
lowerneck -20.701 -1.47051 -7.33515
upperneck 34.1284 1.18541 1.30969
head 15.4714 0.0482058 2.14868
rclavicle -2.5842e-015 -8.34896e-015
rhumerus -45.4914 26.5048 -100.298
rradius 95.102
rwrist -13.5745
rhand -18.3022 3.80046
rfingers 7.12502
rthumb 7.97871 -26.0289
lclavicle -2.5842e-015 -8.34896e-015
lhumerus -41.8024 -36.3648 104.245
lradius 87.623
lwrist 14.8764
lhand -13.7575 37.3422
lfingers 7.12502
lthumb 12.363 66.9567
rfemur -24.382 2.21119 16.9472
rtibia 27.4051
rfoot -5.98391 7.48663
rtoes -14.3162
lfemur 6.90656 -12.2385 -22.309
ltibia 31.1709
lfoot -7.65844 -16.417
ltoes 12.1409
560
root -4.5594 17.6012 11.1562 -159.272 86.1984 -158.877
lowerback 13.7945 2.3344 -1.01018
upperback 0.95997 3.17181 2.26002
thorax -6.90723 1.64343 2.3417
lowerneck -20.7061 -1.36433 -7.13777
upperneck 34.2002 1.32217 1.19879
head 15.5004 0.1169 2.09579
rclavicle -2.68359e-015 -1.11319e-014
rhumerus -45.4003 26.2738 -100.442
rradius 94.8527
rwrist -13.4961
rhand -18.0818 4.08473
rfingers 7.12502
rthumb 8.19141 -25.7365
lclavicle -2.68359e-015 -1.11319e-014
lhumerus -42.0634 -36.092 104.285
lradius 87.6093
lwrist 14.5109
lhand -13.6503 37.3649
lfingers 7.12502
lthumb 12.4663 66.973
rfemur -23.87 1.78832 16.9629
rtibia 27.5108
rfoot -6.54255 7.50183
rtoes -15.2973
lfemur 6.5658 -11.8509 -22.1775
ltibia 32.1906
lfoot -7.05395 -16.8776
ltoes 7.55968
